<svg xmlns="http://www.w3.org/2000/svg" viewBox="0 0 420 650" role="img" aria-labelledby="title desc">
  <title id="title">Dheyn Michael Orlanda field notes</title>
  <desc id="desc">A compact dark field-note graphic identifying Necookie as an AI Engineer and Software Developer in the Philippines and co-founder at DheKode.</desc>
  <rect width="420" height="650" fill="#171b18"/>
  <g fill="none" stroke="#414a43" stroke-width="1"><path d="M24 28H396M24 622H396M24 28V622M396 28V622"/><path d="M24 82H396M24 568H396" stroke-dasharray="3 6"/></g>
  <g fill="#aeb8ae" font-family="ui-monospace, SFMono-Regular, Menlo, Consolas, monospace" font-size="10" letter-spacing=".9"><text x="24" y="18">FIELD NOTES / 01</text><text x="296" y="18">NECOOKIE</text><text x="24" y="642">PHILIPPINES · v1.0</text></g>
  <g fill="#edf1eb" font-family="Arial, Helvetica, sans-serif"><text x="42" y="156" font-size="39" font-weight="700" letter-spacing="-1.5">Dheyn Michael</text><text x="42" y="199" font-size="39" font-weight="700" letter-spacing="-1.5">Orlanda</text><text x="42" y="246" font-size="19">AI Engineer &amp; Software Developer</text><text x="42" y="299" font-size="16">models, systems, and learning</text><text x="42" y="322" font-size="16">paths made useful in software</text></g>
  <g transform="translate(128 356)" fill="none" stroke="#edf1eb" stroke-width="3" stroke-linejoin="round"><path d="M32 70L38 28l29 20c10-4 20-4 30 0l29-20 6 42c10 12 14 27 10 43-6 24-29 40-60 40s-54-16-60-40c-4-16 0-31 10-43z"/><circle cx="58" cy="91" r="6" fill="#edf1eb" stroke="none"/><circle cx="106" cy="91" r="6" fill="#edf1eb" stroke="none"/><path d="M76 107l6 4 6-4M82 111v8M64 124c11 8 25 8 36 0" stroke-linecap="round"/><g fill="#dc8564" stroke="none"><circle cx="52" cy="62" r="5"/><circle cx="82" cy="69" r="4"/><circle cx="113" cy="61" r="5"/><circle cx="42" cy="113" r="4"/><circle cx="119" cy="116" r="4"/></g><path d="M13 91H0M164 91h-13M82 13V0M82 176v-13" stroke="#dc8564" stroke-width="2"/></g>
  <g fill="#aeb8ae" font-family="ui-monospace, SFMono-Regular, Menlo, Consolas, monospace" font-size="12" letter-spacing=".6"><text x="42" y="558">[ CO-FOUNDER / DHEKODE ]</text><text x="42" y="585">[ BASED IN THE PHILIPPINES ]</text></g>
</svg>
